<svg xmlns="http://www.w3.org/2000/svg" width="15" height="16" viewBox="0 0 15 16">
    <path fill="#292929" stroke="#F5F6FA" stroke-width=".5" d="M10.207 9.308c1.591-2.373 1.06-5.66-1.189-7.34C6.771.288 3.658.85 2.068 3.223c-1.592 2.373-1.06 5.659 1.188 7.34 1.604 1.198 3.725 1.29 5.417.236l3.677 3.858c.397.441 1.057.459 1.475.04.418-.419.435-1.116.038-1.557-.012-.014-.024-.027-.038-.04l-3.618-3.792zm-4.073.36c-1.776 0-3.216-1.52-3.217-3.395 0-1.875 1.438-3.395 3.215-3.396 1.773 0 3.213 1.516 3.216 3.389.003 1.875-1.435 3.398-3.212 3.401h-.002z"/>
</svg>
