<svg xmlns="http://www.w3.org/2000/svg" width="16" height="17" viewBox="0 0 16 17">
    <path fill="#C3C3C3" d="M15.636 0C8.244 0 2.163 5.54 1.518 12.579 2.747 10.89 4.252 9.268 6.13 7.4c.14-.14.371-.143.514-.005.144.137.146.362.005.501-.282.28-.57.572-.858.867-.166.167-.327.335-.486.499l-.087.092c-2.321 2.421-3.981 4.528-5.186 7.146-.082.178 0 .388.182.468.05.021.1.031.15.031.138 0 .272-.078.332-.209.429-.931.927-1.796 1.487-2.636 5.08-.127 9.703-2.88 12.126-7.258.06-.11.058-.242-.008-.35-.066-.106-.185-.172-.313-.172h-1.347l2.416-1.344c.076-.043.135-.112.163-.192.518-1.467.78-2.975.78-4.485C16 .16 15.837 0 15.636 0z"/>
</svg>
