<svg xmlns="http://www.w3.org/2000/svg" width="14" height="15" viewBox="0 0 14 15">
    <path fill="#C3C3C3" d="M13.04 6.255v6.221c0 1.06-.863 1.924-1.924 1.924H1.931c-1.06 0-1.924-.863-1.924-1.924v-6.22H13.04zM2.23 1.367v1.819c0 .746.606 1.352 1.352 1.352.746 0 1.353-.606 1.353-1.352V1.367h3.177v1.819c0 .746.607 1.352 1.353 1.352s1.352-.606 1.352-1.352V1.367h.3c1.06 0 1.922.863 1.922 1.924v2.062H.007V3.291c0-1.06.863-1.924 1.924-1.924h.299zM3.582 0c.25 0 .451.202.451.45v2.736c0 .249-.202.45-.45.45-.25 0-.452-.201-.452-.45V.45c0-.25.202-.451.451-.451zm5.883 0c.249 0 .45.202.45.45v2.736c0 .249-.201.45-.45.45-.25 0-.451-.201-.451-.45V.45c0-.25.202-.451.45-.451z"/>
</svg>
