<svg xmlns="http://www.w3.org/2000/svg" width="13" height="16" viewBox="0 0 13 16">
    <path fill="#C3C3C3" d="M9.436 7.42c.4 0 .773.067 1.11.2.338.134.63.318.869.546.228.219.431.484.605.789.166.293.301.6.4.91.097.3.177.628.24.976.061.344.103.67.124.97.02.293.03.598.03.907 0 .803-.254 1.452-.757 1.93-.496.473-1.153.712-1.952.712H2.71c-.798 0-1.455-.24-1.952-.712C.255 14.17 0 13.52 0 12.718c0-.308.01-.613.03-.907.021-.3.063-.626.125-.97.062-.348.143-.676.239-.976.1-.31.234-.617.4-.91.174-.305.377-.57.606-.789.239-.228.53-.412.869-.546.336-.133.71-.2 1.109-.2.157 0 .308.064.6.254.184.12.395.256.628.405.2.128.473.248.81.357.329.106.662.16.991.16.33 0 .663-.054.991-.16.337-.11.61-.23.81-.358.236-.15.447-.286.627-.403.293-.191.445-.255.601-.255zM6.311 0c1.016 0 1.896.365 2.615 1.084.72.719 1.084 1.6 1.084 2.615 0 1.017-.364 1.897-1.084 2.616-.719.72-1.599 1.084-2.615 1.084-1.017 0-1.897-.365-2.616-1.084C2.975 5.596 2.61 4.716 2.61 3.7c0-1.016.365-1.896 1.084-2.615C4.414.364 5.294 0 6.31 0z"/>
</svg>
