<svg xmlns="http://www.w3.org/2000/svg" width="12" height="16" viewBox="0 0 12 16">
    <path fill="#C3C3C3" d="M9.91 7.759V.509c0-.267-.206-.496-.472-.508-.285-.014-.52.213-.52.494V.58c0 .126-.094.233-.22.246-1.962.216-3.968.224-6 0-.126-.013-.22-.12-.22-.246V.51c0-.268-.205-.497-.472-.51-.285-.013-.52.214-.52.495V7.76C.737 7.573 0 8.139 0 8.924c0 .508.323.963.802 1.133.353.124.709.234 1.067.331l2.647 1.78c.146.098.146.314 0 .412l-2.809 1.872c-.227.151-.289.459-.137.687.152.228.46.288.687.137l3.317-2.212c.084-.055.193-.055.276.001 3.58 2.408 3.358 2.294 3.564 2.294.488 0 .682-.634.277-.907l-2.78-1.868c-.146-.098-.146-.314.001-.412l2.719-1.812c.324-.09.646-.191.965-.304.479-.17.8-.624.8-1.132 0-.789-.741-1.352-1.486-1.165zm-4.333 3.928l-.879-.59c-.105-.071-.049-.235.078-.227.621.04 1.247.04 1.89-.003.127-.008.183.156.078.227l-.891.594c-.084.055-.192.055-.276 0zM8.92 8.035c-2.102.511-4.294.522-6.441 0V6.356c0-.126.094-.232.22-.246 1.962-.215 3.968-.223 6 0 .126.014.22.12.22.246v1.68z"/>
</svg>
