<svg xmlns="http://www.w3.org/2000/svg" width="14" height="14" viewBox="0 0 14 14">
    <g fill="none">
        <path fill="#C3C3C3" d="M7 0C3.14 0 0 3.14 0 7s3.14 7 7 7 7-3.14 7-7-3.14-7-7-7zm1.271 9.03c-.15 0-.299-.057-.412-.17L6.588 7.703c-.11-.109-.171-.257-.171-.412V4.578c0-.323.261-.583.583-.583.322 0 .583.26.583.583V7.05l1.1.984c.228.228.228.597 0 .825-.113.114-.263.171-.412.171z"/>
        <path fill="#FFF" d="M7.012 2c1.067 0 2.056.333 2.87.9l.21-.21c.125-.125.337-.06.371.112l.283 1.436c.03.153-.105.288-.258.258l-1.436-.282c-.172-.034-.237-.246-.113-.37l.249-.247c-.63-.402-1.376-.635-2.176-.635-2.337 0-4.217 1.985-4.036 4.352.151 1.974 1.75 3.566 3.728 3.713 2.222.165 4.106-1.472 4.334-3.596.026-.245.231-.431.479-.431l.083.007c.243.042.424.264.397.517-.269 2.577-2.501 4.573-5.178 4.472C4.222 11.9 2.105 9.79 2.004 7.2 1.893 4.348 4.177 2 7.012 2z"/>
    </g>
</svg>
