<svg xmlns="http://www.w3.org/2000/svg" width="15" height="15" viewBox="0 0 15 15">
    <path fill="#C3C3C3" d="M7.465 0C3.343 0 0 3.343 0 7.465c0 4.123 3.343 7.466 7.465 7.466 4.123 0 7.466-3.343 7.466-7.466C14.931 3.343 11.588 0 7.465 0zM9.02 11.57c-.384.152-.69.267-.92.346-.228.08-.494.12-.797.12-.465 0-.827-.114-1.085-.34-.258-.228-.386-.515-.386-.865 0-.136.01-.275.028-.416.02-.142.05-.301.093-.48l.481-1.699c.042-.163.08-.318.108-.462.03-.145.043-.278.043-.4 0-.216-.045-.368-.134-.453-.09-.085-.26-.127-.514-.127-.123 0-.251.018-.382.057-.13.04-.242.076-.334.111l.127-.523c.314-.128.616-.238.903-.33.288-.092.56-.137.816-.137.462 0 .818.112 1.07.335.249.223.375.513.375.87 0 .073-.01.203-.026.39-.017.186-.05.356-.096.512L7.91 9.773c-.04.135-.074.291-.105.465-.031.174-.047.306-.047.395 0 .225.05.379.151.46.1.082.275.123.523.123.117 0 .248-.02.396-.061.146-.04.253-.077.32-.108l-.129.523zm-.084-6.875c-.224.207-.492.311-.806.311-.314 0-.584-.104-.81-.31-.223-.208-.336-.46-.336-.755 0-.294.114-.547.337-.756.225-.21.495-.314.809-.314.314 0 .583.104.806.314.223.21.335.462.335.756 0 .295-.112.547-.335.754z"/>
</svg>
