<svg xmlns="http://www.w3.org/2000/svg" width="17" height="15" viewBox="0 0 17 15">
    <path fill="#484848" d="M2.91 1.002c.087-.15.322-.178.524-.061l13.27 7.66c.201.118.295.334.208.485l-.945 1.636c-.086.15-.32.178-.523.061-.404-.233-.873-.178-1.047.123-.174.3.013.734.417.968.202.116.296.333.209.484l-.945 1.636c-.086.15-.32.178-.523.06L.285 6.395C.084 6.277-.01 6.06.078 5.91l.944-1.636c.087-.15.322-.178.524-.061.404.233.873.178 1.047-.123.174-.301-.013-.735-.417-.968-.203-.117-.296-.333-.21-.484zm6.499 4.92l-1.27.725-1.507-.611.516 1.405-.946 1.049 1.589.142.921 1.26.467-1.317 1.515-.27-1.3-.957.015-1.427z"/>
</svg>
