<svg xmlns="http://www.w3.org/2000/svg" width="35" height="35" viewBox="0 0 35 35">
    <path fill="#FFF" d="M17.065 0C26.49 0 34.13 7.64 34.13 17.065c0 9.424-7.64 17.065-17.065 17.065S0 26.49 0 17.065 7.64 0 17.065 0zm.601 12.537c-1.4-1.172-3.202-1.89-5.053-1.733-3.631.043-6.81 3.396-6.672 7.025-.06 2.936 1.962 5.738 4.744 6.651 2.62.88 5.842.222 7.586-2.022 1.273-1.572 1.562-3.668 1.424-5.627-2.244-.02-4.488-.014-6.729-.01-.003.8 0 1.596.004 2.395 1.343.037 2.687.02 4.03.047-.338 1.163-1.111 2.244-2.284 2.664-2.264.998-5.153-.306-5.865-2.68-.86-2.275.547-5.02 2.872-5.682 1.441-.507 2.926.064 4.16.813.624-.584 1.208-1.209 1.783-1.84zm8.395 2.268h-1.998c-.007.668-.014 1.34-.017 2.008-.672.007-1.34.01-2.01.014v2.002c.67.004 1.341.007 2.01.014.007.668.007 1.337.013 2.009.665 0 1.334-.004 2.002 0 .004-.672.007-1.34.014-2.013l2.01-.01v-2.002c-.67-.003-1.342-.007-2.01-.013l-.014-2.01z"/>
</svg>
