<svg xmlns="http://www.w3.org/2000/svg" xmlns:xlink="http://www.w3.org/1999/xlink" width="35" height="35" viewBox="0 0 35 35">
    <defs>
        <path id="prefix__a" d="M17.453 0c9.639 0 17.453 7.814 17.453 17.453s-7.814 17.453-17.453 17.453S0 27.092 0 17.453 7.814 0 17.453 0zm5.202 7.002H12.25c-2.92 0-5.296 2.376-5.296 5.296v10.404c0 2.92 2.376 5.296 5.296 5.296h10.404c2.92 0 5.296-2.375 5.296-5.296V12.298c0-2.92-2.375-5.296-5.296-5.296zm0 2.285c1.66 0 3.012 1.35 3.012 3.011v10.404c0 1.66-1.352 3.012-3.012 3.012H12.25c-1.66 0-3.011-1.352-3.011-3.012V12.298c0-1.66 1.35-3.011 3.011-3.011zm-5.202 2.805c-2.982 0-5.408 2.426-5.408 5.408s2.426 5.408 5.408 5.408 5.408-2.426 5.408-5.408-2.426-5.408-5.408-5.408zm0 2.286c1.722 0 3.122 1.4 3.122 3.122s-1.4 3.123-3.122 3.123c-1.721 0-3.123-1.401-3.123-3.123 0-1.722 1.402-3.122 3.123-3.122zm5.582-3.726c-.706 0-1.28.574-1.28 1.28 0 .705.574 1.279 1.28 1.279.705 0 1.28-.574 1.28-1.28 0-.705-.575-1.28-1.28-1.28z"/>
    </defs>
    <g fill="none" fill-rule="evenodd">
        <use fill="#FFF" fill-rule="nonzero" xlink:href="#prefix__a"/>
    </g>
</svg>
