<svg xmlns="http://www.w3.org/2000/svg" width="35" height="35" viewBox="0 0 35 35">
    <path fill="#FFF" d="M17.187 0C7.71 0 0 7.71 0 17.187s7.71 17.188 17.187 17.188 17.188-7.71 17.188-17.188C34.375 7.71 26.665 0 17.187 0zm-.296 24.005l-1.186 1.186c-1.802 1.802-4.719 1.802-6.521 0-1.798-1.798-1.798-4.724 0-6.522l3.557-3.557c1.798-1.797 4.723-1.797 6.521 0 .491.491.491 1.288 0 1.779-.49.49-1.287.491-1.778 0-.818-.817-2.147-.817-2.965 0l-3.557 3.557c-.817.817-.817 2.147 0 2.964.818.817 2.147.817 2.965 0l1.185-1.186c.491-.49 1.288-.49 1.779 0 .49.492.491 1.288 0 1.779zm8.3-8.3l-3.557 3.557c-1.798 1.798-4.724 1.798-6.522 0-.49-.49-.49-1.287 0-1.778.491-.491 1.288-.491 1.779 0 .817.817 2.147.817 2.964 0l3.557-3.557c.817-.818.817-2.147 0-2.965-.817-.817-2.147-.817-2.964 0l-1.186 1.186c-.49.491-1.287.491-1.778 0-.491-.491-.491-1.287 0-1.778l1.186-1.186c1.802-1.802 4.718-1.802 6.52 0 1.799 1.798 1.799 4.723 0 6.521z"/>
</svg>
