<svg xmlns="http://www.w3.org/2000/svg" width="35" height="35" viewBox="0 0 35 35">
    <path fill="#FFF" d="M17.065 0C26.49 0 34.13 7.64 34.13 17.065S26.49 34.13 17.065 34.13C7.641 34.13 0 26.49 0 17.065S7.64 0 17.065 0zm4.336 10.351c-2.253 0-4.08 1.827-4.08 4.08 0 .32.037.63.107.929-3.39-.17-6.396-1.794-8.408-4.262-.35.602-.552 1.303-.552 2.05 0 1.415.72 2.664 1.814 3.396-.668-.021-1.297-.205-1.847-.511v.052c0 1.976 1.406 3.624 3.272 3.999-.342.094-.703.143-1.075.143-.263 0-.518-.025-.767-.073.519 1.62 2.025 2.8 3.81 2.833-1.396 1.094-3.155 1.746-5.066 1.746-.329 0-.654-.019-.973-.057 1.805 1.158 3.95 1.833 6.253 1.833 7.502 0 11.605-6.216 11.605-11.606 0-.177-.004-.353-.011-.528.797-.575 1.489-1.293 2.035-2.11-.731.323-1.518.543-2.343.64.843-.504 1.489-1.303 1.794-2.256-.788.468-1.661.807-2.59.99-.744-.792-1.804-1.288-2.978-1.288z"/>
</svg>
