<svg xmlns="http://www.w3.org/2000/svg" width="18" height="18" viewBox="0 0 18 18">
    <g>
        <path d="M12.88 1.493h-.933V.747c0-.412-.334-.747-.747-.747s-.747.335-.747.747v.746H4.48V.747C4.48.335 4.146 0 3.733 0s-.746.335-.746.747v.746h-.934C.921 1.493 0 2.413 0 3.547v8.4c0 1.235 1.005 2.24 2.24 2.24h3.733c.413 0 .747-.335.747-.747s-.334-.747-.747-.747H2.24c-.412 0-.747-.335-.747-.746V5.973H13.44c0 .412.334.747.747.747s.746-.335.746-.747V3.547c0-1.133-.92-2.054-2.053-2.054z"/>
        <path d="M13.067 8.213c-2.676 0-4.854 2.178-4.854 4.854s2.178 4.853 4.854 4.853 4.853-2.177 4.853-4.853c0-2.676-2.177-4.854-4.853-4.854zm1.866 5.6h-1.12v1.12c0 .412-.334.747-.746.747s-.747-.335-.747-.747v-1.12H11.2c-.412 0-.747-.334-.747-.746s.335-.747.747-.747h1.12V11.2c0-.412.335-.747.747-.747s.746.335.746.747v1.12h1.12c.412 0 .747.335.747.747s-.335.746-.747.746z"/>
    </g>
</svg>
