<svg xmlns="http://www.w3.org/2000/svg" width="29" height="29" viewBox="0 0 29 29">
    <g fill="none">
        <path fill="#FBBB00" d="M6.341 17.29l-.996 3.719-3.64.077C.617 19.068 0 16.759 0 14.306c0-2.372.577-4.61 1.6-6.58l3.241.595 1.42 3.221c-.297.867-.46 1.797-.46 2.764 0 1.05.191 2.057.54 2.985z"/>
        <path fill="#518EF8" d="M28.362 11.634c.165.865.25 1.759.25 2.672 0 1.024-.107 2.023-.312 2.987-.697 3.28-2.517 6.143-5.037 8.17l-.001-.001-4.082-.208-.578-3.607c1.673-.98 2.98-2.516 3.669-4.354h-7.65v-5.66h13.741z"/>
        <path fill="#28B446" d="M23.262 25.462c-2.451 1.971-5.566 3.15-8.956 3.15-5.448 0-10.185-3.045-12.601-7.526l4.636-3.795c1.208 3.224 4.319 5.52 7.965 5.52 1.568 0 3.036-.424 4.296-1.164l4.66 3.815z"/>
        <path fill="#F14336" d="M23.438 3.294l-4.635 3.794c-1.304-.815-2.845-1.286-4.497-1.286-3.729 0-6.897 2.4-8.045 5.74L1.6 7.727H1.6C3.98 3.137 8.777 0 14.306 0c3.471 0 6.654 1.236 9.132 3.294z"/>
    </g>
</svg>
