<svg xmlns="http://www.w3.org/2000/svg" width="31" height="29" viewBox="0 0 31 29">
    <g fill="none">
        <path fill="#1976D2" d="M29.842 5.837H16.365c-.531 0-.963.431-.963.962 0 .532.432.963.963.963h10.672l-5.914 4.6-4.242-2.698-1.032 1.625 4.813 3.061c.156.1.337.15.516.15.208 0 .418-.067.591-.201l7.11-5.532V21.24H16.366c-.531 0-.963.432-.963.963 0 .531.432.963.963.963h13.477c.532 0 .963-.432.963-.963V6.799c0-.531-.431-.962-.963-.962z"/>
        <path fill="#2196F3" d="M16.98.282C16.76.1 16.464.02 16.187.078L.786 2.966C.329 3.051 0 3.447 0 3.911V25.09c0 .462.33.86.786.945l15.402 2.888c.058.012.117.017.177.017.223 0 .441-.077.614-.22.222-.184.349-.457.349-.742V1.023c0-.286-.127-.558-.349-.74z"/>
        <path fill="#FAFAFA" d="M8.664 21.24c-2.653 0-4.813-2.592-4.813-5.777 0-3.184 2.16-5.776 4.813-5.776 2.653 0 4.813 2.592 4.813 5.776 0 3.185-2.16 5.776-4.813 5.776zm0-9.627c-1.592 0-2.888 1.727-2.888 3.85 0 2.124 1.296 3.85 2.888 3.85 1.592 0 2.888-1.726 2.888-3.85 0-2.123-1.296-3.85-2.888-3.85z"/>
    </g>
</svg>
