<svg xmlns="http://www.w3.org/2000/svg" width="28" height="28" viewBox="0 0 28 28">
    <g fill="none">
        <rect width="27.84" height="27.84" fill="#FFF6E0" rx="6.72"/>
        <path fill="#FEBF24" d="M18.74 5.793c1.25 0 2.28 1.03 2.28 2.279V9.28c1.13.159 1.982 1.11 1.982 2.26v.99h.099c.713 0 1.288.575 1.288 1.289v3.17c0 .714-.575 1.289-1.288 1.289H23v1.09c0 1.248-1.03 2.279-2.278 2.279H8.039c-1.248 0-2.279-1.03-2.279-2.28V8.172c.02-1.328 1.11-2.378 2.418-2.378zm4.262 8.125h-3.27c-.813 0-1.487.674-1.487 1.486 0 .813.674 1.487 1.487 1.487h3.27v-2.973zm-2.874.495c.547 0 .991.444.991.991 0 .548-.444.991-.99.991-.548 0-.992-.443-.992-.99 0-.548.444-.992.991-.992zM18.721 7.18H8.178c-.555 0-1.03.456-1.03 1.03 0 .575.475 1.05 1.03 1.05h11.435V8.073c0-.496-.397-.892-.892-.892z"/>
    </g>
</svg>
